<?xml version="1.0" encoding="UTF-8"?>
<svg xmlns="http://www.w3.org/2000/svg" xml:space="preserve" style="fill-rule:evenodd;clip-rule:evenodd;stroke-linejoin:round;stroke-miterlimit:2" viewBox="0 0 1775 988">
  <path d="M36.996 86.527h3.285c3.928 0 2.962-3.027 2.833-5.216-.129-1.224-.129-6.826-.129-13.072h20.349c0 5.924-.064 11.655-.129 13.652-.064 1.996 0 4.636 3.027 4.636h3.22c3.992 0 2.897-3.027 2.833-5.216-.258-3.22.064-31.747.193-34.001.065-1.996 0-4.572-2.962-4.572h-3.284c-3.992 0-2.833 3.027-2.833 5.216v13.652H43.114c0-6.89.064-13.265.129-14.296.129-1.996.064-4.572-2.962-4.572h-3.22c-3.992 0-2.898 3.027-2.834 5.216 0 1.481 0 28.849-.193 33.937-.064 1.996 0 4.636 2.962 4.636ZM96.042 70.621c2.708 1.03 5.474.58 6.246.837v3.8c-.772 2.382-3.799 5.409-7.921 5.409-3.155 0-5.496-1.807-5.345-4.83.215-4.278 3.349-6.612 7.02-5.216Zm-4.251 16.55c7.47 0 10.562-6.247 10.562-6.247h.386c-.515 4.122.708 6.247 3.864 6.247 5.602 0 4.121-2.511 3.993-5.087-.129-3.606.128-13.266.064-18.61-.129-7.793-5.345-13.008-14.489-13.008-5.538 0-9.467 1.159-11.206 2.704-2.833 2.769.58 7.019.58 7.019s4.379-2.318 9.595-2.318c4.315 0 7.213 1.932 7.213 6.053v3.156c-1.159-.451-4.895-1.482-8.629-1.546-7.664-.064-12.944 3.993-12.815 11.012.129 5.86 3.928 10.625 10.882 10.625ZM171.831 83.114c-.129-7.727.322-13.072.387-18.288 0-6.955-2.126-14.36-11.592-14.36-7.405 0-9.916 5.28-10.303 7.019h-.451c-1.352-4.057-4.25-7.019-10.432-7.019-7.47 0-9.595 5.28-9.918 7.019h-.386c-.063-1.288-.063-2.126-.129-2.576-.256-2.125-1.158-4.443-5.022-4.443-4.958 0-3.735 2.189-3.735 4.185 0 2.963-.193 14.167-.193 22.861 0 2.061-.064 3.863-.064 5.087 0 1.803.257 3.928 2.898 3.928h3.348c2.834 0 2.962-1.996 2.705-4.636-.065-.645-.065-2.125-.065-3.993-.128-3.735.065-9.273.128-13.909.967-2.19 3.157-6.44 7.664-6.44 3.993 0 5.281 3.284 5.281 7.341 0 6.311-.451 12.879-.451 18.482 0 1.932.322 3.155 2.833 3.155h3.285c2.382 0 2.897-1.095 2.833-3.22-.064-7.727.386-13.201.451-18.417 0-.901-.065-1.803-.129-2.705 1.223-2.189 3.542-4.636 6.954-4.636 3.993 0 5.346 3.284 5.346 7.341 0 6.311-.322 12.171-.322 18.031 0 2.318 1.03 4.25 5.215 4.25 4.186 0 3.929-1.932 3.864-4.057ZM187.859 87.171c1.932 0 4.507-.451 5.924-1.095 1.095-.45 1.352-1.03 1.288-2.189l-.129-2.125c-.128-.838-.644-1.353-1.674-1.288-2.382.064-3.22.257-3.284-2.061-.258-7.083.644-28.849.773-33.099.064-2.512-.515-4.508-5.023-4.508-3.8 0-4.057 1.095-3.928 4.186.193 3.091-.322 29.751-.322 33.936 0 5.216 1.609 8.243 6.375 8.243ZM210.137 86.527c2.834 0 2.962-1.996 2.705-4.636-.129-.645-.129-2.125-.129-3.993-.128-5.345.065-15.004.386-22.796.129-3.155-1.288-3.992-5.216-3.992-4.7 0-3.735 2.189-3.735 4.185 0 4.701 0 13.523-.193 22.217 0 2.061-.064 3.863-.064 5.087 0 1.803.257 3.928 2.898 3.928h3.348ZM208.721 47.117c2.511 0 4.572-.451 4.507-4.186-.129-3.799-2.189-4.25-4.83-4.25-2.575 0-4.636.451-4.507 4.25.129 3.735 2.061 4.186 4.83 4.186ZM243.684 50.466c-7.405 0-10.303 5.344-10.753 7.019h-.451c0-1.288 0-2.126-.129-2.576-.257-2.125-1.159-4.443-5.023-4.443-4.959 0-3.736 2.189-3.736 4.185 0 2.963 0 14.167-.192 22.861 0 2.061-.064 3.863-.064 5.087 0 1.803.256 3.928 2.897 3.928h3.349c2.833 0 2.962-1.996 2.704-4.636-.065-.645-.065-2.125-.065-3.993-.063-3.606 0-9.015.065-13.523.967-2.061 3.67-6.826 8.5-6.826 3.929 0 5.86 3.284 5.86 7.341 0 6.311-.514 12.235-.514 18.095 0 2.319 1.094 4.186 5.216 4.186 4.121 0 3.928-1.803 3.863-3.864-.128-7.792.387-13.265.387-18.481.064-6.955-2.511-14.36-11.914-14.36ZM71.127 134.743v-2.447c0-1.739-.772-2.254-2.64-2.254-3.349 0-11.269.064-14.231 0l.064-12.493h15.584c1.996 0 3.027-.322 3.027-2.512v-2.317c0-1.74-.644-2.834-2.641-2.834H48.653c-3.67 0-3.091 2.061-3.091 5.216 0 1.353.065 21.444 0 30.716 0 1.675-.064 3.027-.064 3.736 0 2.511.322 4.121 3.027 4.121h2.962c2.833 0 2.962-1.803 2.962-4.25 0-1.546-.257-6.44-.257-12.622 4.121-.064 12.943-.128 14.81.065 1.546.128 2.125-.451 2.125-2.125ZM86.514 105.829c-2.576 0-4.637.451-4.508 4.25.129 3.735 2.061 4.186 4.83 4.186 2.511 0 4.572-.451 4.507-4.186-.128-3.799-2.189-4.25-4.829-4.25ZM85.998 118.257c-4.7 0-3.735 2.19-3.735 4.186 0 4.701 0 13.523-.193 22.217 0 2.06-.064 3.863-.064 5.087 0 1.803.257 3.928 2.898 3.928h3.348c2.834 0 2.963-1.996 2.705-4.636-.129-.644-.129-2.125-.129-3.993-.129-5.345.065-15.004.387-22.796.128-3.155-1.288-3.993-5.217-3.993ZM117.872 133.133l-4.959-1.481c-2.704-.772-3.992-1.802-3.992-3.671 0-3.284 3.67-3.735 5.86-3.735 5.473 0 9.273 2.576 9.273 2.576.773-.644 2.253-3.348 1.932-5.152-.193-1.545-2.641-4.057-11.785-4.057-8.758 0-14.038 4.057-14.038 10.561 0 4.701 2.189 7.664 8.629 9.66l4.765 1.481c3.156.966 5.345 2.124 5.345 4.314 0 3.091-3.413 4.057-6.761 4.057-5.796 0-9.724-2.769-9.724-2.769-.387.194-1.868 2.318-1.739 4.572.065 2.254 2.769 4.83 11.785 4.83 9.723 0 15.197-4.444 15.197-11.205 0-5.152-2.962-7.985-9.788-9.981ZM142.853 111.303c-1.417 0-1.803.644-1.932 1.738-.193 2.061-1.03 5.731-6.311 6.054-1.288.193-1.545.965-1.545 1.481 0 1.03.129 2.189.064 3.091 0 1.094.451 1.416 1.674 1.416h3.413c0 1.932-.322 15.069-.322 18.997-.064 6.89 2.641 10.239 9.467 10.239 2.64 0 6.246-.58 8.178-1.675 1.03-.579 1.223-1.288 1.095-2.446l-.387-2.447c-.128-.837-.837-1.482-2.125-1.095-1.159.258-2.576.772-4.185.772-2.319 0-3.22-.772-3.22-4.056-.065-5.087 0-13.201.257-18.418.322 0 6.118-.064 8.823 0 1.223 0 1.416-.579 1.416-1.352 0-1.352.064-2.833.064-3.993 0-.772-.45-1.416-1.803-1.352-2.511.129-6.954.129-8.371 0 0-1.416 0-3.413.064-4.958.194-2.447-2.704-1.996-4.314-1.996ZM175.948 154.319c7.212 0 10.11-5.28 10.497-7.019h.45c0 1.352 0 2.125.129 2.575.258 2.125 1.159 4.444 5.023 4.444 4.959 0 3.799-2.19 3.799-4.186-.064-2.962 0-14.167.129-22.86 0-2.061.064-3.864.064-5.087 0-1.803-.257-3.929-2.897-3.929h-3.285c-2.897 0-3.026 1.996-2.768 4.636.064.645.064 2.126.128 3.993.065 3.607-.064 9.08-.128 13.716-.967 2.125-3.542 6.633-8.179 6.633-3.992 0-5.667-3.284-5.667-7.341 0-6.311.516-12.235.516-18.095 0-2.318-1.031-4.186-5.216-4.186-4.122 0-3.928 1.803-3.864 3.864.129 7.793-.322 13.266-.387 18.482 0 6.955 2.254 14.36 11.656 14.36ZM219.217 148.909c-.129-.837-.644-1.351-1.674-1.288-2.383.065-3.22.258-3.285-2.06-.257-7.083.645-28.849.773-33.099.065-2.512-.515-4.508-5.022-4.508-3.8 0-4.057 1.095-3.928 4.186.193 3.091-.323 29.75-.323 33.936 0 5.217 1.61 8.243 6.375 8.243 1.932 0 4.508-.451 5.925-1.095 1.095-.451 1.352-1.03 1.288-2.189l-.129-2.126ZM246.969 142.406c-.772 2.382-3.8 5.408-7.921 5.408-3.155 0-5.345-1.802-5.345-4.829 0-3.349 3.028-5.216 7.02-5.216 2.897 0 5.474.579 6.246.837v3.8Zm8.371-11.785c-.128-7.791-5.344-13.008-14.488-13.008-5.539 0-9.466 1.159-11.205 2.705-2.833 2.769.579 7.019.579 7.019s4.379-2.318 9.595-2.318c4.315 0 7.213 1.932 7.213 6.053v3.155c-1.16-.45-4.895-1.48-8.629-1.545-7.664-.065-12.944 3.993-12.815 11.011.129 5.861 3.927 10.626 10.882 10.626 7.47 0 10.562-6.247 10.562-6.247h.386c-.515 4.122.708 6.247 3.863 6.247 5.602 0 4.121-2.512 3.994-5.087-.13-3.607.127-13.266.063-18.611ZM26.12 177.035H3.002c-3.927 0-2.898 3.026-2.834 5.215 0 1.481.258 28.849.129 33.937-.064 1.996 0 4.636 2.962 4.636H26.12c2.254 0 2.64-.386 2.64-2.061v-3.026c0-1.804-.837-2.705-2.705-2.576-1.931.129-12.042.193-16.936.193-.064-3.348-.128-6.89-.128-11.076 4.893-.065 12.879 0 14.746 0 1.481 0 1.996-.321 1.996-1.996v-2.576c0-1.545-1.03-2.124-2.189-2.061-1.545.065-9.788.065-14.553.065l.064-11.205h16.936c1.867.064 2.769-.644 2.769-2.447v-2.254c0-1.674-.386-2.768-2.64-2.768ZM57.09 185.406c-2.512.128-6.955.128-8.372 0 0-1.417 0-3.414.065-4.959.193-2.447-2.705-1.996-4.315-1.996-1.416 0-1.803.644-1.932 1.738-.193 2.061-1.03 5.731-6.31 6.054-1.288.193-1.546.966-1.546 1.481 0 1.031.129 2.189.065 3.091 0 1.094.45 1.417 1.674 1.417h3.413c0 1.931-.322 15.068-.322 18.997-.065 6.889 2.64 10.238 9.466 10.238 2.64 0 6.246-.579 8.178-1.674 1.03-.58 1.224-1.288 1.095-2.447l-.387-2.447c-.128-.837-.837-1.481-2.124-1.095-1.16.258-2.576.772-4.186.772-2.318 0-3.22-.772-3.22-4.056-.064-5.087 0-13.201.258-18.418.322 0 6.117-.063 8.822 0 1.223 0 1.417-.579 1.417-1.352 0-1.351.064-2.833.064-3.992 0-.773-.451-1.417-1.803-1.352ZM87.223 184.762c-7.534 0-10.56 5.344-11.011 7.019h-.709c.065-4.572.129-8.952.322-12.043.129-3.154-1.288-4.636-5.151-4.636-4.701 0-3.8 2.189-3.8 4.186 0 4.701 0 23.826-.193 32.52v5.087c0 1.803.258 3.928 2.898 3.928h3.284c2.898 0 2.962-1.996 2.769-4.636-.064-.644-.129-2.125-.129-3.993-.064-2.383-.129-7.598-.064-13.329.902-1.933 3.67-7.02 8.629-7.02 3.928 0 5.731 3.285 5.731 7.341 0 6.311-.322 12.236-.322 18.095 0 2.319 1.03 4.186 5.216 4.186 4.122 0 3.928-1.803 3.864-3.863-.129-7.793.322-13.266.386-18.482 0-6.955-2.511-14.36-11.72-14.36ZM112.719 185.406c-4.701 0-3.735 2.189-3.735 4.186 0 4.7 0 13.522-.193 22.216 0 2.061-.064 3.863-.064 5.087 0 1.803.257 3.928 2.898 3.928h3.348c2.834 0 2.962-1.996 2.705-4.636-.129-.644-.129-2.125-.129-3.993-.129-5.345.064-15.004.386-22.795.129-3.156-1.288-3.993-5.216-3.993ZM113.234 172.977c-2.576 0-4.636.451-4.507 4.251.129 3.734 2.06 4.185 4.829 4.185 2.512 0 4.573-.451 4.508-4.185-.129-3.8-2.189-4.251-4.83-4.251ZM142.853 214.513c-6.375 0-7.856-5.474-7.856-11.592 0-5.924 1.417-11.14 7.921-11.14 6.053 0 7.921 5.151 7.921 11.14 0 6.118-1.482 11.592-7.986 11.592Zm0-29.751c-10.947 0-16.292 8.049-16.42 18.159-.129 10.625 5.473 18.611 16.485 18.611 10.947 0 16.42-8.05 16.549-18.546.129-10.24-5.602-18.224-16.614-18.224ZM183.74 214.383c-4.958 0-7.341-5.924-7.727-7.212v-5.345c0-6.761 3.413-10.238 7.276-10.238 4.186 0 7.342 4.379 7.342 12.235s-3.349 10.56-6.891 10.56Zm2.254-29.621c-7.921 0-10.174 5.988-10.174 5.988h-.387c.387-3.284-.386-5.988-3.864-5.988-1.094 0-2.511.193-3.155.386-1.867.709-.966 3.091-.902 4.701.322 8.758-.128 34.967-.257 37.156-.129 2.125.322 3.477 3.026 3.477h2.641c2.833 0 3.477-.579 3.348-3.477 0-1.803-.193-7.792-.257-12.622h.45c.515 2.126 3.8 7.084 10.175 7.084 7.47 0 12.943-6.826 12.879-17.451-.129-12.493-6.118-19.254-13.523-19.254ZM212.005 185.406c-4.701 0-3.735 2.189-3.735 4.186 0 4.7 0 13.522-.193 22.216 0 2.061-.064 3.863-.064 5.087 0 1.803.257 3.928 2.897 3.928h3.349c2.833 0 2.962-1.996 2.705-4.636-.129-.644-.129-2.125-.129-3.993-.129-5.345.064-15.004.386-22.795.129-3.156-1.288-3.993-5.216-3.993ZM212.52 172.977c-2.576 0-4.636.451-4.507 4.251.129 3.734 2.06 4.185 4.829 4.185 2.512 0 4.572-.451 4.508-4.185-.129-3.8-2.189-4.251-4.83-4.251ZM246.969 209.554c-.772 2.382-3.8 5.409-7.921 5.409-3.155 0-5.345-1.803-5.345-4.83 0-3.348 3.028-5.216 7.02-5.216 2.897 0 5.474.58 6.246.837v3.8Zm8.371-11.784c-.128-7.792-5.344-13.008-14.488-13.008-5.539 0-9.466 1.158-11.205 2.704-2.833 2.769.579 7.019.579 7.019s4.379-2.318 9.595-2.318c4.315 0 7.213 1.932 7.213 6.054v3.154c-1.16-.45-4.895-1.48-8.629-1.545-7.664-.064-12.944 3.993-12.815 11.011.129 5.861 3.927 10.626 10.882 10.626 7.47 0 10.562-6.247 10.562-6.247h.386c-.515 4.122.708 6.247 3.863 6.247 5.602 0 4.121-2.511 3.994-5.087-.13-3.606.127-13.266.063-18.61ZM425.067 176.374c-2.031-22.405-18.331-39.208-29.023-48.883-10.695-9.674-25.968-27.499-24.956-42.27 1.02-14.767 4.073-18.84 4.073-18.84s-1.058-3.327-4.541 2.689c-3.483 6.024-14.25 26.303 1.59 49.742 15.84 23.448 44.99 48.161 23.758 87.451 0 0-16.155 24.712-50.056 18.692-33.9-6.022-41.183-40.238-36.436-60.204 4.751-19.953 18.691-43.714 24.076-50.053 5.385-6.339 21.545-32.317 25.029-40.871 3.491-8.555 12.992-23.448 8.875-54.813 0 0-7.6-22.809-10.456-18.373l1.355 5.648s12.226 31.066-23.424 73.334c-35.648 42.266-50.923 67.217-49.902 96.249 1.017 29.022 30.557 60.083 75.364 61.108 44.819 1.015 66.71-38.2 64.674-60.606Z" style="fill:#006980;fill-rule:nonzero" transform="scale(4.16667)"></path>
  <path d="M340.708 189.958s-5.888.146-6.519 3.627c-.637 3.488 2.849 14.57 19.642 16.788 16.795 2.219 33.269-17.107 32.002-33.265-1.271-16.154-8.87-25.98-24.398-17.425-15.528 8.561-6.02 19.643-6.02 21.545 0 1.9 3.982 13.482-14.707 8.73Z" style="fill:#006980;fill-rule:nonzero" transform="scale(4.16667)"></path>
  <path d="M355.473 137.677c-14.26-4.753-21.046 5.599-21.046 5.599-8.321 17.143 2.372 26.82 7.127 28.177 5.039 1.439 9.335-2.375 10.185-3.901.849-1.53 1.187-2.376 1.867-3.738.676-1.357 2.037-2.713 3.058-3.904 1.017-1.189 3.562-2.716 3.562-2.716 3.737-3.902 3.737-7.981 2.206-12.391-1.525-4.413-6.959-7.126-6.959-7.126Z" style="fill:#006980;fill-rule:nonzero" transform="scale(4.16667)"></path>
</svg>
